<svg
  viewBox="0 0 64 64"
  fill="#000000"
  xmlns="http://www.w3.org/2000/svg"
>
  <path
    d="M16 6C14.3 6 13 7.3 13 9S14.3 12 16 12s3-1.3 3-3-1.3-3-3-3zm0 4c-.6 0-1.1.4-1.4.9l-7.6 14c-.5.9-.2 2 .7 2.5.2.2.5.3.8.3h18.7c.5 0 .9-.2 1.2-.6.4-.4.6-1 .6-1.6 0-.3-.1-.7-.3-1l-5.7-10.5 4.2-8.9H10l-.8-2.2H2V4h3.5c.3 0 .6-.1.8-.3.2-.2.3-.5.3-.8 0-.5-.4-1-1-1H1C.4 1 0 1.4 0 2s.4 1 1 1h2.5l3.1 8.6 5.2 11.3c.2.3.5.5.9.5H51c.6 0 1-.4 1-1s-.4-1-1-1H14.6L10.3 14c-.4-.7-1.2-1.1-2-1.1zM58 54c-1.6 0-3 1.3-3 3s1.3 3 3 3 3-1.3 3-3-1.3-3-3-3zm-46 0c-1.6 0-3 1.3-3 3s1.3 3 3 3 3-1.3 3-3-1.3-3-3-3zm44-44H17.3l-4.5-9.8c-.3-.5-.9-.7-1.4-.7H1c-.6 0-1 .4-1 1s.4 1 1 1h10.6l4.8 10.4c.2.3.5.5.9.5H51c.6 0 1-.4 1-1s-.4-1-1-1H21.2l-2.3-5H58c.6 0 1-.4 1-1s-.4-1-1-1z"
  />
</svg>
